<?xml version="1.0" encoding="UTF-8" standalone="no"?>
<!-- Created with Inkscape (http://www.inkscape.org/) -->

<svg
   xmlns:dc="http://purl.org/dc/elements/1.1/"
   xmlns:cc="http://creativecommons.org/ns#"
   xmlns:rdf="http://www.w3.org/1999/02/22-rdf-syntax-ns#"
   xmlns:svg="http://www.w3.org/2000/svg"
   xmlns="http://www.w3.org/2000/svg"
   xmlns:sodipodi="http://sodipodi.sourceforge.net/DTD/sodipodi-0.dtd"
   xmlns:inkscape="http://www.inkscape.org/namespaces/inkscape"
   width="171.5406"
   height="213.4071"
   id="svg5039"
   version="1.1"
   inkscape:version="0.48.4 r9939"
   sodipodi:docname="Analyze.svg">
  <defs
     id="defs5041" />
  <sodipodi:namedview
     id="base"
     pagecolor="#ffffff"
     bordercolor="#666666"
     borderopacity="1.0"
     inkscape:pageopacity="0.0"
     inkscape:pageshadow="2"
     inkscape:zoom="0.35"
     inkscape:cx="217.91315"
     inkscape:cy="-33.296451"
     inkscape:document-units="px"
     inkscape:current-layer="layer1"
     showgrid="false"
     fit-margin-top="0"
     fit-margin-left="0"
     fit-margin-right="0"
     fit-margin-bottom="0"
     inkscape:window-width="1536"
     inkscape:window-height="803"
     inkscape:window-x="-8"
     inkscape:window-y="-8"
     inkscape:window-maximized="1" />
  <metadata
     id="metadata5044">
    <rdf:RDF>
      <cc:Work
         rdf:about="">
        <dc:format>image/svg+xml</dc:format>
        <dc:type
           rdf:resource="http://purl.org/dc/dcmitype/StillImage" />
        <dc:title />
      </cc:Work>
    </rdf:RDF>
  </metadata>
  <g
     inkscape:label="Layer 1"
     inkscape:groupmode="layer"
     id="layer1"
     transform="translate(-157.08685,-285.65862)">
    <path
       sodipodi:type="arc"
       style="fill:#b3b3b3;fill-opacity:1;stroke:none"
       id="path3906-9-4-8-1"
       sodipodi:cx="-2543.75"
       sodipodi:cy="-335.13782"
       sodipodi:rx="56.25"
       sodipodi:ry="56.25"
       d="m -2487.5,-335.13782 a 56.25,56.25 0 1 1 -112.5,0 56.25,56.25 0 1 1 112.5,0 z"
       transform="matrix(1.5248054,0,0,1.5248054,4121.5809,882.44888)" />
    <g
       transform="matrix(1.0740005,0,0,1.0740005,-41.607846,373.64286)"
       style="font-size:40px;font-style:normal;font-weight:normal;line-height:125%;letter-spacing:0px;word-spacing:0px;fill:#000000;fill-opacity:1;stroke:none;font-family:Sans"
       id="flowRoot6992-2-8-3-0-3-5">
      <path
         d="m 211.5625,82.406022 4.375,0 9.76562,26.874998 -5.85937,0 -1.79688,-5.54687 -10.46875,0 -1.71875,5.54687 -5.85937,0 8.90625,-25.078123 c 0.46874,-1.19789 1.35416,-1.796848 2.65625,-1.796875 z m 1.25,5.390625 -3.75,11.40625 7.5,0 z"
         style="font-variant:normal;font-stretch:normal;fill:#000000;font-family:Harabara;-inkscape-font-specification:Harabara"
         id="path5324" />
      <path
         d="m 245.07812,109.28102 -2.73437,0 c -0.78126,0 -1.41928,-0.24739 -1.91406,-0.74219 -0.49481,-0.49479 -0.7422,-1.13281 -0.74219,-1.91406 l 0,0 0,-10.624998 c -1e-5,-1.249986 -0.37762,-2.161443 -1.13281,-2.734375 -0.75522,-0.5729 -1.60158,-0.859358 -2.53907,-0.859375 -0.9375,1.7e-5 -1.77084,0.286475 -2.5,0.859375 -0.72917,0.572932 -1.09375,1.484389 -1.09375,2.734375 l 0,13.281248 -5.46875,0 0,-12.187498 c 0,-3.541651 0.92448,-5.91144 2.77344,-7.109375 1.84896,-1.197896 3.89322,-1.848937 6.13281,-1.953125 2.29166,2.1e-5 4.40103,0.598979 6.32813,1.796875 1.92707,1.197935 2.89061,3.619807 2.89062,7.265625 z"
         style="font-variant:normal;font-stretch:normal;fill:#000000;font-family:Harabara;-inkscape-font-specification:Harabara"
         id="path5326" />
      <path
         d="m 257.96875,98.812272 c -0.72918,0.364593 -1.7448,0.703135 -3.04688,1.015625 -1.19792,0.260423 -1.79688,0.390633 -1.79687,0.390623 -0.93751,0.26043 -1.61459,0.59897 -2.03125,1.01563 -0.36459,0.57292 -0.54688,1.14584 -0.54688,1.71875 0,0.78125 0.23438,1.40625 0.70313,1.875 0.46874,0.41667 1.14583,0.625 2.03125,0.625 1.45832,0 2.60416,-0.41667 3.4375,-1.25 0.83332,-0.83333 1.24999,-1.97916 1.25,-3.4375 z m 1.25,9.609378 c -1.09376,0.57291 -2.25262,0.92448 -3.47656,1.05468 -1.22397,0.13021 -2.3047,0.19532 -3.24219,0.19532 -1.875,0 -3.51563,-0.50782 -4.92188,-1.52344 -1.40625,-1.01562 -2.10937,-2.69531 -2.10937,-5.03906 0,-2.18749 0.63802,-3.749993 1.91406,-4.687503 1.27604,-0.937488 2.90364,-1.562488 4.88281,-1.875 0.26042,1.3e-5 0.57291,-0.03905 0.9375,-0.117188 0.36458,-0.07811 0.78125,-0.143216 1.25,-0.195312 2.29166,-0.312487 3.43749,-0.989569 3.4375,-2.03125 -1e-5,-0.781234 -0.40365,-1.289046 -1.21093,-1.523438 -0.8073,-0.234358 -1.54949,-0.351545 -2.22657,-0.351562 -0.72917,1.7e-5 -1.38021,0.104183 -1.95312,0.3125 -0.57292,0.20835 -0.98959,0.598974 -1.25,1.171875 l -5.23438,0 c 0.20834,-1.614566 0.9375,-2.94269 2.1875,-3.984375 1.40625,-1.197896 3.41146,-1.796854 6.01563,-1.796875 2.91666,2.1e-5 5.10415,0.494812 6.5625,1.484375 1.5104,1.041685 2.26561,2.500017 2.26562,4.375 l 0,7.109373 c -1e-5,2.08334 -0.37762,3.71094 -1.13281,4.88281 -0.75522,1.17188 -1.65366,2.01823 -2.69531,2.53907 z"
         style="font-variant:normal;font-stretch:normal;fill:#000000;font-family:Harabara;-inkscape-font-specification:Harabara"
         id="path5328" />
      <path
         d="m 264.0625,82.406022 2.8125,0 c 0.72916,2.7e-5 1.35416,0.247422 1.875,0.742187 0.52083,0.494818 0.78124,1.106796 0.78125,1.835938 l 0,24.296873 -5.46875,0 z"
         style="font-variant:normal;font-stretch:normal;fill:#000000;font-family:Harabara;-inkscape-font-specification:Harabara"
         id="path5330" />
      <path
         d="m 273.4375,116.62477 0,-4.29687 1.48437,0 c 1.04167,-1e-5 1.86198,-0.2474 2.46094,-0.74219 0.59895,-0.49479 0.71614,-1.28906 0.35156,-2.38281 l -7.26562,-20.703128 6.01562,0 4.21875,14.687498 3.67188,-12.812498 0,0 c 0.31249,-1.24998 1.14582,-1.874979 2.5,-1.875 l 3.75,0 -7.96875,23.671878 c -0.62501,1.71874 -1.40626,2.9427 -2.34375,3.67187 -0.93751,0.62499 -2.47397,0.93749 -4.60938,0.9375 -0.15625,-1e-5 -0.33854,-1e-5 -0.54687,0 -0.20834,-1e-5 -0.39063,-1e-5 -0.54688,0 -0.15625,-0.0521 -0.35156,-0.0911 -0.58593,-0.11719 -0.23438,-0.026 -0.42969,-0.0391 -0.58594,-0.0391 z"
         style="font-variant:normal;font-stretch:normal;fill:#000000;font-family:Harabara;-inkscape-font-specification:Harabara"
         id="path5332" />
      <path
         d="m 291.5625,109.28102 0,-4.14062 11.17187,-12.343753 -7.89062,0 c -0.72917,1.6e-5 -1.35417,-0.247379 -1.875,-0.742188 -0.52083,-0.494774 -0.78125,-1.106752 -0.78125,-1.835937 l 0,-1.71875 17.03125,0 0,4.453125 -11.01563,11.796873 11.40625,0 0,4.53125 z"
         style="font-variant:normal;font-stretch:normal;fill:#000000;font-family:Harabara;-inkscape-font-specification:Harabara"
         id="path5334" />
      <path
         d="m 324.92187,102.87477 3.90625,0 c -0.57293,2.18751 -1.66668,3.85417 -3.28125,5 -1.61459,1.19792 -3.64584,1.79688 -6.09375,1.79688 -2.96875,0 -5.28646,-0.96354 -6.95312,-2.89063 -1.66667,-1.87499 -2.5,-4.55728 -2.5,-8.046873 0,-3.33332 0.80729,-5.937484 2.42187,-7.8125 1.66667,-1.927063 3.98437,-2.890604 6.95313,-2.890625 3.12499,2.1e-5 5.54686,0.93752 7.26562,2.8125 1.66665,1.9271 2.49999,4.609389 2.5,8.046875 -1e-5,0.208343 -1e-5,0.390635 0,0.546875 -1e-5,0.15626 -1e-5,0.260426 0,0.3125 -1e-5,0.260428 -0.0261,0.442718 -0.0781,0.546878 l -13.51563,0 c 0.0521,1.61459 0.44271,2.8125 1.17188,3.59375 0.67708,0.83333 1.6927,1.25 3.04687,1.25 0.88541,0 1.64062,-0.18229 2.26563,-0.54688 0.15624,-0.0521 0.29947,-0.14322 0.42969,-0.27344 0.13019,-0.1302 0.27342,-0.27343 0.42968,-0.42968 0.0521,-0.15625 0.24739,-0.36458 0.58594,-0.625 0.33853,-0.26041 0.8203,-0.39062 1.44531,-0.39063 z m -9.375,-6.093748 7.96875,0 c -0.10417,-1.406236 -0.46876,-2.447902 -1.09375,-3.125 -0.67709,-0.72915 -1.64063,-1.093733 -2.89062,-1.09375 -1.14584,1.7e-5 -2.08334,0.3646 -2.8125,1.09375 -0.72917,0.729181 -1.1198,1.770847 -1.17188,3.125 z"
         style="font-variant:normal;font-stretch:normal;fill:#000000;font-family:Harabara;-inkscape-font-specification:Harabara"
         id="path5336" />
    </g>
    <rect
       style="fill:#ffffff;fill-opacity:1;stroke:#ffffff;stroke-width:3.99008226;stroke-miterlimit:4;stroke-opacity:1;stroke-dasharray:none"
       id="rect4975-0-4"
       width="21.041449"
       height="41.693241"
       x="190.45833"
       y="373.06894" />
    <rect
       style="fill:#ffffff;fill-opacity:1;stroke:#ffffff;stroke-width:5.18931484;stroke-miterlimit:4;stroke-opacity:1;stroke-dasharray:none"
       id="rect4975-7-1-9"
       width="19.842216"
       height="74.783783"
       x="220.28215"
       y="339.57358" />
    <rect
       style="fill:#ffffff;fill-opacity:1;stroke:#ffffff;stroke-width:3.43817997;stroke-miterlimit:4;stroke-opacity:1;stroke-dasharray:none"
       id="rect4975-1-6-29"
       width="21.593351"
       height="30.165794"
       x="247.85132"
       y="385.84644" />
    <rect
       style="fill:#ffffff;fill-opacity:1;stroke:#ffffff;stroke-width:4.73337889;stroke-miterlimit:4;stroke-opacity:1;stroke-dasharray:none"
       id="rect4975-77-4-3"
       width="20.298153"
       height="60.822426"
       x="276.16473"
       y="354.93188" />
  </g>
</svg>
