<?xml version="1.0" encoding="UTF-8" standalone="no"?>
<!-- Created with Inkscape (http://www.inkscape.org/) -->

<svg
   xmlns:dc="http://purl.org/dc/elements/1.1/"
   xmlns:cc="http://creativecommons.org/ns#"
   xmlns:rdf="http://www.w3.org/1999/02/22-rdf-syntax-ns#"
   xmlns:svg="http://www.w3.org/2000/svg"
   xmlns="http://www.w3.org/2000/svg"
   version="1.1"
   width="220.31177"
   height="224.20932"
   id="svg2">
  <defs
     id="defs4" />
  <metadata
     id="metadata7">
    <rdf:RDF>
      <cc:Work
         rdf:about="">
        <dc:format>image/svg+xml</dc:format>
        <dc:type
           rdf:resource="http://purl.org/dc/dcmitype/StillImage" />
        <dc:title></dc:title>
      </cc:Work>
    </rdf:RDF>
  </metadata>
  <g
     transform="translate(-364.49056,-304.54323)"
     id="layer1">
    <path
       d="m 470.20762,528.50392 c -0.1084,-0.0973 -1.78369,-0.29157 -3.72421,-0.42806 -5.26256,-0.37032 -11.01002,-1.20077 -15.75869,-2.27633 -8.21073,-1.85978 -19.82866,-6.12531 -25.74049,-9.45044 -1.73855,-0.97778 -3.3791,-1.77793 -3.64567,-1.77793 -0.26657,0 -0.48491,-0.21015 -0.48491,-0.47031 0,-0.25882 -0.29975,-0.47031 -0.66631,-0.47031 -0.36656,0 -0.73688,-0.17255 -0.82337,-0.37762 -0.0863,-0.20794 -1.42686,-1.14812 -2.97915,-2.08984 -7.06261,-4.285 -18.5728,-14.68269 -23.61724,-21.33493 -0.96141,-1.26781 -1.96817,-2.54401 -2.23695,-2.8358 -0.26878,-0.29156 -0.75015,-0.92668 -1.06959,-1.41115 -0.31944,-0.48447 -1.10056,-1.62175 -1.73612,-2.52741 -9.74355,-13.88476 -15.40054,-25.16245 -19.1097,-38.09729 -5.24995,-18.30757 -5.49683,-38.88726 -0.69131,-57.6262 7.95345,-31.013 29.3167,-57.19526 58.3394,-71.49989 13.60934,-6.70755 26.02697,-10.00281 41.63147,-11.04762 31.36098,-2.10003 62.45096,9.68912 84.75505,32.139 17.01654,17.12736 27.50979,37.90881 31.27869,61.94547 1.17466,7.492 1.16272,24.35058 -0.0221,31.97132 -2.58581,16.62211 -8.57618,32.01402 -17.92529,46.0576 -1.68458,2.53029 -3.06299,4.8345 -3.06299,5.12053 0,0.28604 -0.2794,0.6891 -0.62074,0.89616 -0.34156,0.20573 -1.5587,1.64653 -2.70505,3.19859 -1.14613,1.55251 -2.29558,3.06232 -2.55441,3.35522 -0.2586,0.29289 -1.13662,1.35142 -1.95092,2.35221 -2.36659,2.90769 -9.61767,10.16275 -11.92609,11.93228 -1.16427,0.89261 -2.22257,1.74231 -2.35199,1.88854 -1.85668,2.0967 -14.03473,9.67939 -19.99236,12.4486 -2.06993,0.96208 -4.29251,2.0195 -4.93935,2.35 -3.44193,1.75868 -13.95355,4.82587 -20.9332,6.10871 -8.25387,1.51667 -23.86877,2.75196 -24.73572,1.9569 z m -25.3631,-75.9415 c 5.16191,-1.53128 8.84054,-3.22758 13.09412,-6.03793 4.54648,-3.00392 12.03825,-10.26385 14.8559,-14.39576 1.01318,-1.48593 1.98366,-2.7013 2.15621,-2.7013 0.17255,0 1.14304,1.21537 2.15644,2.7013 4.73782,6.94823 14.95788,15.43726 22.16118,18.40755 6.1607,2.54047 9.15489,3.08887 16.84332,3.08489 8.35187,0 10.91269,-0.57008 17.87552,-3.94786 10.18754,-4.94135 17.40876,-13.63279 20.53413,-24.71515 1.49941,-5.31587 1.4941,-14.36014 0,-19.7572 -3.70518,-13.28171 -14.13097,-23.76568 -27.3618,-27.514 -4.32791,-1.22599 -12.56519,-1.70736 -17.38685,-1.01561 -11.97277,1.71687 -23.81568,9.39779 -32.33567,20.97125 -1.15564,1.56999 -2.26925,2.85438 -2.47454,2.85438 -0.20574,0 -1.31913,-1.28439 -2.47477,-2.85438 -10.05303,-13.65579 -23.82253,-21.35152 -38.21586,-21.3575 -18.58165,0 -33.97887,11.44782 -38.86558,28.91586 -1.50893,5.39352 -1.51556,14.43558 -0.0221,19.7572 3.13024,11.0994 10.31385,19.73376 20.60912,24.77244 6.74051,3.29881 11.26973,4.21841 19.44705,3.9483 4.37238,-0.14379 7.30307,-0.49199 9.40819,-1.11648 z m -17.40499,-13.06824 c -5.07939,-1.35584 -8.38682,-3.28575 -12.21876,-7.13052 -5.28866,-5.30636 -7.57627,-10.68483 -7.51146,-17.65984 0.0619,-6.72635 2.71944,-12.45966 8.15698,-17.60276 8.29191,-7.84262 20.45979,-9.38296 31.21917,-3.9514 6.82878,3.44724 15.4616,12.44086 19.34508,20.15385 l 1.00057,1.98765 -2.00269,3.34857 c -4.7219,7.89528 -11.45578,14.73268 -17.78571,18.05892 -6.24167,3.27978 -14.24113,4.38675 -20.20318,2.79553 z m 19.28667,-24.42579 0,-4.00958 -11.75818,0.0376 -11.7584,0.0376 -0.27409,1.09259 c -0.20352,0.81209 -0.0332,5.5351 0.24312,6.73123 0.0221,0.0664 5.31919,0.11724 11.78738,0.11724 l 11.76017,0 0,-4.01002 z m 62.26935,24.27912 c -8.77263,-2.38296 -17.14971,-9.19758 -23.47035,-19.09311 -3.35632,-5.25503 -3.32181,-4.80397 -0.7037,-9.15997 11.08922,-18.45069 27.72526,-25.55246 43.09859,-18.39826 3.64611,1.69696 8.81067,6.52969 11.08236,10.3707 4.38432,7.4139 4.17925,17.58794 -0.50128,24.87796 -3.08688,4.80751 -8.43682,9.02238 -13.81728,10.88548 -4.27548,1.48061 -11.28942,1.712 -15.68834,0.5172 z m 9.70328,-16.27103 0,-3.99829 3.99852,0 3.99852,0 0,-3.99409 0,-3.99432 -3.38884,0.17919 c -1.86399,0.0973 -3.66315,0.073 -3.99852,-0.0553 -0.43226,-0.16592 -0.60968,-1.38284 -0.60968,-4.18235 l 0,-3.94808 -3.9452,0 -3.94542,0 0.0288,4.10227 0.0288,4.10226 -4.08103,-0.13715 -4.08125,-0.13716 0,4.03259 0,4.03258 3.96666,0 c 4.56793,0 4.51728,-0.0531 4.29628,4.46861 -0.0752,1.5525 -0.0487,2.98135 0.0619,3.17536 0.11061,0.19467 1.87991,0.35306 3.93436,0.35306 l 3.73549,0 0,-3.99851 z"
       id="path5070-4"
       style="fill:#009da4" />
  </g>
</svg>
