<?xml version="1.0" encoding="UTF-8" standalone="no"?>
<!-- Created with Inkscape (http://www.inkscape.org/) -->

<svg
   xmlns:dc="http://purl.org/dc/elements/1.1/"
   xmlns:cc="http://creativecommons.org/ns#"
   xmlns:rdf="http://www.w3.org/1999/02/22-rdf-syntax-ns#"
   xmlns:svg="http://www.w3.org/2000/svg"
   xmlns="http://www.w3.org/2000/svg"
   xmlns:sodipodi="http://sodipodi.sourceforge.net/DTD/sodipodi-0.dtd"
   xmlns:inkscape="http://www.inkscape.org/namespaces/inkscape"
   width="171.5406"
   height="171.5406"
   id="svg10033"
   version="1.1"
   inkscape:version="0.48.4 r9939"
   sodipodi:docname="Back.svg">
  <defs
     id="defs10035" />
  <sodipodi:namedview
     id="base"
     pagecolor="#ffffff"
     bordercolor="#666666"
     borderopacity="1.0"
     inkscape:pageopacity="0.0"
     inkscape:pageshadow="2"
     inkscape:zoom="5.6"
     inkscape:cx="76.190714"
     inkscape:cy="65.606266"
     inkscape:document-units="px"
     inkscape:current-layer="layer1"
     showgrid="false"
     fit-margin-top="0"
     fit-margin-left="0"
     fit-margin-right="0"
     fit-margin-bottom="0"
     inkscape:window-width="1536"
     inkscape:window-height="803"
     inkscape:window-x="-8"
     inkscape:window-y="-8"
     inkscape:window-maximized="1" />
  <metadata
     id="metadata10038">
    <rdf:RDF>
      <cc:Work
         rdf:about="">
        <dc:format>image/svg+xml</dc:format>
        <dc:type
           rdf:resource="http://purl.org/dc/dcmitype/StillImage" />
        <dc:title />
      </cc:Work>
    </rdf:RDF>
  </metadata>
  <g
     inkscape:label="Layer 1"
     inkscape:groupmode="layer"
     id="layer1"
     transform="translate(-322.80116,-303.76209)">
    <path
       sodipodi:type="arc"
       style="fill:#b3b3b3;fill-opacity:1;stroke:none"
       id="path3906-9-4-7-35-4-7"
       sodipodi:cx="-2543.75"
       sodipodi:cy="-335.13782"
       sodipodi:rx="56.25"
       sodipodi:ry="56.25"
       d="m -2487.5,-335.13782 c 0,31.06602 -25.184,56.25 -56.25,56.25 -31.066,0 -56.25,-25.18398 -56.25,-56.25 0,-31.06601 25.184,-56.25 56.25,-56.25 31.066,0 56.25,25.18399 56.25,56.25 z"
       transform="matrix(1.5248054,0,0,1.5248054,4287.2952,900.55235)" />
    <g
       transform="matrix(1.0740005,0,0,1.0740005,152.62059,391.7463)"
       style="font-size:40px;font-style:normal;font-weight:normal;line-height:125%;letter-spacing:0px;word-spacing:0px;fill:#000000;fill-opacity:1;stroke:none;font-family:Sans"
       id="flowRoot6992-2-8-3-0-7-5-0-8" />
    <path
       style="opacity:0.98720015000000005;fill:#ffffff;fill-opacity:1;stroke:#ffffff;stroke-width:1.07142854000000010;stroke-linecap:butt;stroke-linejoin:bevel;stroke-miterlimit:4;stroke-opacity:1;stroke-dasharray:none"
       d="m 394.92795,328.99446 c -1.42261,0.32868 -1.94647,1.99172 -2.95071,2.90076 -14.61645,17.88836 -29.41091,35.63999 -43.84617,53.66732 -0.61377,0.72665 -1.52314,1.80912 -0.61942,2.68973 9.51304,12.0658 19.37336,23.87692 29.10457,35.77312 5.77268,6.94515 11.38665,14.03192 17.34633,20.80612 0.5459,0.89457 2.06295,1.03201 2.41071,-0.10044 0.45213,-2.79937 0.14438,-5.68038 0.26786,-8.51005 0.0149,-2.41443 0.0298,-4.82887 0.0446,-7.2433 17.5295,-0.047 35.06098,0.109 52.58917,-0.1181 0.91575,0.0716 2.30074,-0.11079 2.23784,-1.31605 0.2693,-12.46681 0.12298,-24.94097 0.17299,-37.41072 -0.0413,-14.25196 0.0911,-28.5066 -0.15625,-42.7567 0.13018,-1.03493 -0.87518,-1.66891 -1.8192,-1.51227 -15.93355,-0.25218 -31.87158,-0.0834 -47.80692,-0.13393 -1.73921,0 -3.47842,0 -5.21763,0 -0.0391,-5.24827 0.078,-10.52277 -0.0583,-15.75472 -0.11136,-0.74734 -1.04026,-1.00857 -1.69951,-0.98077 z"
       id="path6007"
       inkscape:connector-curvature="0" />
  </g>
</svg>
