<svg xmlns:dc="http://purl.org/dc/elements/1.1/" xmlns:cc="http://creativecommons.org/ns#" xmlns:rdf="http://www.w3.org/1999/02/22-rdf-syntax-ns#" xmlns:svg="http://www.w3.org/2000/svg" xmlns="http://www.w3.org/2000/svg" xmlns:sodipodi="http://sodipodi.sourceforge.net/DTD/sodipodi-0.dtd" xmlns:inkscape="http://www.inkscape.org/namespaces/inkscape" width="171.5" height="208.5" id="svg4128" version="1.1" inkscape:version="0.48.4 r9939">
  <defs id="defs4130"/>
  <metadata id="metadata4133">
    <rdf:RDF>
      <cc:Work rdf:about="">
        <dc:format>image/svg+xml</dc:format>
        <dc:type rdf:resource="http://purl.org/dc/dcmitype/StillImage"/>
        <dc:title/>
      </cc:Work>
    </rdf:RDF>
  </metadata>
  <g inkscape:label="Layer 1" inkscape:groupmode="layer" id="layer1" transform="translate(-377.08687,-342.39433)">
    <path class="icon" style="fill:#b3b3b3;fill-opacity:1;stroke:none" id="icon" d="m -2487.5 -335.1 a 56.2 56.2 0 1 1 -112.5 0 56.2 56.2 0 1 1 112.5 0 z" transform="matrix(1.5248054,0,0,1.5248054,4341.5809,939.18459)"/>
    <path style="fill:#ffffff;fill-opacity:1;stroke:none" id="path3906-3-84-0-1-4" d="m -2487.5 -335.1 a 56.2 56.2 0 1 1 -112.5 0 56.2 56.2 0 1 1 112.5 0 z" transform="matrix(0.27439263,0,0,0.27439263,1101.518,520.19729)"/>
    <path style="fill:#ffffff;fill-opacity:1;stroke:none" id="path3906-3-8-7-1-8-0" d="m -2487.5 -335.1 a 56.2 56.2 0 1 1 -112.5 0 56.2 56.2 0 1 1 112.5 0 z" transform="matrix(0.27439263,0,0,0.27439263,1160.5822,464.41059)"/>
    <path style="fill:none;stroke:#ffffff;stroke-width:4.64663172px;stroke-linecap:butt;stroke-linejoin:miter;stroke-opacity:1" d="m 404 427.4 c 15.7 0 -19.8 -2 47.2 0 l 12.5 -55.4 11.1 94.6 37.6 0" id="path3951-6-2-6-9" inkscape:connector-curvature="0"/>
    <g transform="matrix(1.0740005,0,0,1.0740005,188.50776,432.77849)" style="font-size:40px;font-style:normal;font-weight:normal;line-height:125%;letter-spacing:0px;word-spacing:0px;fill:#000000;fill-opacity:1;stroke:none;font-family:Sans" id="flowRoot6992-2-8-3-5-2-4">
      <path d="m 224 100 c -0.3 3.1 -1.4 5.6 -3.5 7.3 -2.1 1.7 -4.9 2.6 -8.4 2.6 -4.1 0 -7.2 -1.2 -9.3 -3.7 -2.1 -2.3 -3.2 -5.8 -3.2 -10.4 0 -4.7 1.1 -8.2 3.3 -10.5 2.2 -2.4 5.5 -3.7 9.7 -3.7 3.4 0 6.2 0.9 8.2 2.6 1.9 1.7 3 4 3.3 7 l -3.4 0 c -1.3 0 -2.1 -0.5 -2.7 -1.6 l 0 0 c -0.4 -0.7 -0.8 -1.3 -1.3 -1.8 -1 -0.8 -2.4 -1.2 -4.1 -1.2 -2.4 0 -4.2 0.8 -5.5 2.3 -1.2 1.6 -1.9 3.9 -1.9 6.9 0 2.9 0.6 5.2 1.9 6.7 1.2 1.6 3 2.4 5.4 2.4 1.7 0 3 -0.4 4.1 -1.2 1 -0.8 1.7 -2 2.1 -3.8 z" style="font-variant:normal;font-stretch:normal;fill:#000000;font-family:Harabara;-inkscape-font-specification:Harabara" id="path4201"/>
      <path d="m 227.7 107.4 c -1.1 -0.9 -1.9 -2.2 -2.3 -3.8 -0.5 -1.6 -0.7 -3.2 -0.7 -5 0 -1.4 0.2 -2.8 0.6 -4.2 0.4 -1.4 1 -2.6 1.8 -3.5 1.4 -1.6 3.1 -2.5 5.2 -2.8 2.1 -0.3 4.1 -0.1 5.8 0.5 2 0.8 3.4 2.1 4.4 4.1 0.9 1.7 1.3 3.7 1.3 6 -0 1.7 -0.2 3.1 -0.5 4.3 -0.4 1.2 -0.8 2.2 -1.4 3 -1.3 1.7 -2.8 2.8 -4.8 3.2 -1.7 0.5 -3.5 0.5 -5.2 0.1 -1.7 -0.4 -3.1 -1.1 -4.2 -2 z m 3.8 -13.7 c -1.1 1.2 -1.6 3 -1.5 5.4 0.1 2.4 0.5 4 1.3 5 0.3 0.4 0.9 0.8 1.6 1.1 0.8 0.3 1.6 0.3 2.4 0.1 0.8 -0.2 1.5 -0.8 2.1 -1.8 0.6 -0.9 1 -2.4 1 -4.5 -0 -1.9 -0.3 -3.3 -0.9 -4.2 -0.6 -0.9 -1.3 -1.5 -2.1 -1.8 -0.8 -0.3 -1.6 -0.3 -2.3 -0 -0.8 0.2 -1.4 0.5 -1.7 0.9 z" style="font-variant:normal;font-stretch:normal;fill:#000000;font-family:Harabara;-inkscape-font-specification:Harabara" id="path4203"/>
      <path d="m 244.9 82.4 2.8 0 c 0.7 0 1.4 0.2 1.9 0.7 0.5 0.5 0.8 1.1 0.8 1.8 l 0 24.3 -5.5 0 z" style="font-variant:normal;font-stretch:normal;fill:#000000;font-family:Harabara;-inkscape-font-specification:Harabara" id="path4205"/>
      <path d="m 251.6 82.4 2.8 0 c 0.7 0 1.4 0.2 1.9 0.7 0.5 0.5 0.8 1.1 0.8 1.8 l 0 24.3 -5.5 0 z" style="font-variant:normal;font-stretch:normal;fill:#000000;font-family:Harabara;-inkscape-font-specification:Harabara" id="path4207"/>
      <path d="m 272.4 102.9 3.9 0 c -0.6 2.2 -1.7 3.9 -3.3 5 -1.6 1.2 -3.6 1.8 -6.1 1.8 -3 0 -5.3 -1 -7 -2.9 -1.7 -1.9 -2.5 -4.6 -2.5 -8 0 -3.3 0.8 -5.9 2.4 -7.8 1.7 -1.9 4 -2.9 7 -2.9 3.1 0 5.5 0.9 7.3 2.8 1.7 1.9 2.5 4.6 2.5 8 -0 0.2 -0 0.4 0 0.5 -0 0.2 -0 0.3 0 0.3 -0 0.3 -0 0.4 -0.1 0.5 l -13.5 0 c 0.1 1.6 0.4 2.8 1.2 3.6 0.7 0.8 1.7 1.2 3 1.2 0.9 0 1.6 -0.2 2.3 -0.5 0.2 -0.1 0.3 -0.1 0.4 -0.3 0.1 -0.1 0.3 -0.3 0.4 -0.4 0.1 -0.2 0.2 -0.4 0.6 -0.6 0.3 -0.3 0.8 -0.4 1.4 -0.4 z m -9.4 -6.1 8 0 c -0.1 -1.4 -0.5 -2.4 -1.1 -3.1 -0.7 -0.7 -1.6 -1.1 -2.9 -1.1 -1.1 0 -2.1 0.4 -2.8 1.1 -0.7 0.7 -1.1 1.8 -1.2 3.1 z" style="font-variant:normal;font-stretch:normal;fill:#000000;font-family:Harabara;-inkscape-font-specification:Harabara" id="path4209"/>
      <path d="m 292 102.9 3.9 0 c -0.6 2.2 -1.7 3.9 -3.3 5 -1.6 1.2 -3.6 1.8 -6.1 1.8 -3 0 -5.3 -1 -7 -2.9 -1.7 -1.9 -2.5 -4.6 -2.5 -8 0 -3.3 0.8 -5.9 2.4 -7.8 1.7 -1.9 4 -2.9 7 -2.9 3.1 0 5.5 0.9 7.3 2.8 0.9 1.1 1.6 2.5 2 4 l -5.5 0 c -0.3 -0.5 -0.5 -0.9 -0.8 -1.2 -0.7 -0.7 -1.6 -1.1 -2.9 -1.1 -1.1 0 -2.1 0.4 -2.8 1.1 -0.9 1 -1.4 2.8 -1.4 5.2 0 2.4 0.5 4.1 1.4 5.1 0.7 0.8 1.7 1.2 3 1.2 0.9 0 1.6 -0.2 2.3 -0.5 0.2 -0.1 0.3 -0.1 0.4 -0.3 0.1 -0.1 0.3 -0.3 0.4 -0.4 0.1 -0.2 0.3 -0.4 0.6 -0.6 0.3 -0.3 0.8 -0.4 1.4 -0.4 z" style="font-variant:normal;font-stretch:normal;fill:#000000;font-family:Harabara;-inkscape-font-specification:Harabara" id="path4211"/>
      <path d="m 305.9 109.3 c -1.7 0.1 -3.6 0.1 -5.6 -0.1 -2 -0.2 -3 -1.4 -3 -3.8 l 0 -23 2.8 0 c 0.7 0 1.3 0.3 1.8 0.8 0.5 0.5 0.8 1.1 0.8 1.9 l 0 3.5 3.2 0 0 1.1 c -0 0.8 -0.3 1.4 -0.8 1.9 -0.5 0.5 -1.1 0.7 -1.9 0.7 l -0.5 0 0 11.6 c 0 0.9 0.5 1.3 1.6 1.3 l 1.6 0 z" style="font-variant:normal;font-stretch:normal;fill:#000000;font-family:Harabara;-inkscape-font-specification:Harabara" id="path4213"/>
    </g>
    <path style="fill:#ffffff;fill-opacity:1;stroke:none" id="path3906-3-8-7-5-7-2-4" d="m -2487.5 -335.1 a 56.2 56.2 0 1 1 -112.5 0 56.2 56.2 0 1 1 112.5 0 z" transform="matrix(0.27439263,0,0,0.27439263,1210.3066,556.99211)"/>
  </g>
</svg>
