<?xml version="1.0" encoding="UTF-8" standalone="no"?>
<!-- Created with Inkscape (http://www.inkscape.org/) -->

<svg
   xmlns:dc="http://purl.org/dc/elements/1.1/"
   xmlns:cc="http://creativecommons.org/ns#"
   xmlns:rdf="http://www.w3.org/1999/02/22-rdf-syntax-ns#"
   xmlns:svg="http://www.w3.org/2000/svg"
   xmlns="http://www.w3.org/2000/svg"
   xmlns:xlink="http://www.w3.org/1999/xlink"
   xmlns:sodipodi="http://sodipodi.sourceforge.net/DTD/sodipodi-0.dtd"
   xmlns:inkscape="http://www.inkscape.org/namespaces/inkscape"
   width="270"
   height="270"
   id="svg6873"
   version="1.1"
   inkscape:version="0.48.4 r9939"
   sodipodi:docname="DAQ.svg">
  <defs
     id="defs6875">
    <linearGradient
       inkscape:collect="always"
       xlink:href="#linearGradient5391"
       id="linearGradient6831"
       x1="-4142.8862"
       y1="-909.875"
       x2="-4141.5869"
       y2="-1171.5045"
       gradientUnits="userSpaceOnUse" />
    <linearGradient
       id="linearGradient5391">
      <stop
         style="stop-color:#ce2118;stop-opacity:1;"
         offset="0"
         id="stop5393" />
      <stop
         style="stop-color:#e52a20;stop-opacity:1;"
         offset="1"
         id="stop5395" />
    </linearGradient>
    <linearGradient
       gradientTransform="translate(4383.6794,1479.5308)"
       y2="-1171.5045"
       x2="-4141.5869"
       y1="-909.875"
       x1="-4142.8862"
       gradientUnits="userSpaceOnUse"
       id="linearGradient6871"
       xlink:href="#linearGradient5391"
       inkscape:collect="always" />
  </defs>
  <sodipodi:namedview
     id="base"
     pagecolor="#ffffff"
     bordercolor="#666666"
     borderopacity="1.0"
     inkscape:pageopacity="0.0"
     inkscape:pageshadow="2"
     inkscape:zoom="0.35"
     inkscape:cx="267.14286"
     inkscape:cy="46.428558"
     inkscape:document-units="px"
     inkscape:current-layer="layer1"
     showgrid="false"
     fit-margin-top="0"
     fit-margin-left="0"
     fit-margin-right="0"
     fit-margin-bottom="0"
     inkscape:window-width="1536"
     inkscape:window-height="803"
     inkscape:window-x="-8"
     inkscape:window-y="-8"
     inkscape:window-maximized="1" />
  <metadata
     id="metadata6878">
    <rdf:RDF>
      <cc:Work
         rdf:about="">
        <dc:format>image/svg+xml</dc:format>
        <dc:type
           rdf:resource="http://purl.org/dc/dcmitype/StillImage" />
        <dc:title></dc:title>
      </cc:Work>
    </rdf:RDF>
  </metadata>
  <g
     inkscape:label="Layer 1"
     inkscape:groupmode="layer"
     id="layer1"
     transform="translate(-107.85714,-308.79074)">
    <rect
       style="opacity:0.98720015;fill:url(#linearGradient6871);fill-opacity:1;stroke:none"
       id="rect6038"
       width="270"
       height="270"
       x="107.85714"
       y="308.79074"
       ry="19.824343" />
    <g
       transform="matrix(0,-1.1345058,1.1345058,0,131.59085,730.00611)"
       style="font-size:40px;font-style:normal;font-weight:normal;line-height:125%;letter-spacing:0px;word-spacing:0px;opacity:0.27800006;fill:#000000;fill-opacity:1;stroke:none;font-family:Sans"
       id="flowRoot6992-2-3-4-5">
      <path
         d="m 200,109.28102 0,-24.062498 c 0,-0.781225 0.27344,-1.445287 0.82031,-1.992188 0.54688,-0.546848 1.21094,-0.820285 1.99219,-0.820312 l 2.73437,0 0,21.874998 13.125,0 0,5 z"
         style="font-variant:normal;font-stretch:normal;fill:#000000;font-family:Harabara;-inkscape-font-specification:Harabara"
         id="path6950" />
      <path
         d="m 231.5625,98.812272 c -0.72918,0.364593 -1.7448,0.703135 -3.04688,1.015625 -1.19792,0.260423 -1.79688,0.390633 -1.79687,0.390623 -0.93751,0.26043 -1.61459,0.59897 -2.03125,1.01563 -0.36459,0.57292 -0.54688,1.14584 -0.54688,1.71875 0,0.78125 0.23438,1.40625 0.70313,1.875 0.46874,0.41667 1.14583,0.625 2.03125,0.625 1.45832,0 2.60416,-0.41667 3.4375,-1.25 0.83332,-0.83333 1.24999,-1.97916 1.25,-3.4375 z m 1.25,9.609378 c -1.09376,0.57291 -2.25262,0.92448 -3.47656,1.05468 -1.22397,0.13021 -2.3047,0.19532 -3.24219,0.19532 -1.875,0 -3.51563,-0.50782 -4.92188,-1.52344 -1.40625,-1.01562 -2.10937,-2.69531 -2.10937,-5.03906 0,-2.18749 0.63802,-3.749993 1.91406,-4.687503 1.27604,-0.937488 2.90364,-1.562488 4.88281,-1.875 0.26042,1.3e-5 0.57291,-0.03905 0.9375,-0.117188 0.36458,-0.07811 0.78125,-0.143216 1.25,-0.195312 2.29166,-0.312487 3.43749,-0.989569 3.4375,-2.03125 -1e-5,-0.781234 -0.40365,-1.289046 -1.21093,-1.523438 -0.8073,-0.234358 -1.54949,-0.351545 -2.22657,-0.351562 -0.72917,1.7e-5 -1.38021,0.104183 -1.95312,0.3125 -0.57292,0.20835 -0.98959,0.598974 -1.25,1.171875 l -5.23438,0 c 0.20834,-1.614566 0.9375,-2.94269 2.1875,-3.984375 1.40625,-1.197896 3.41146,-1.796854 6.01563,-1.796875 2.91666,2.1e-5 5.10415,0.494812 6.5625,1.484375 1.5104,1.041685 2.26561,2.500017 2.26562,4.375 l 0,7.109373 c -1e-5,2.08334 -0.37762,3.71094 -1.13281,4.88281 -0.75522,1.17188 -1.65366,2.01823 -2.69531,2.53907 z"
         style="font-variant:normal;font-stretch:normal;fill:#000000;font-family:Harabara;-inkscape-font-specification:Harabara"
         id="path6952" />
      <path
         d="m 242.73437,84.984147 0,6.25 c 0.57292,-0.989564 1.40625,-1.796855 2.5,-2.421875 0.9375,-0.520812 2.08333,-0.781229 3.4375,-0.78125 2.44791,2.1e-5 4.45311,1.015645 6.01563,3.046875 1.56248,2.031266 2.34373,4.661472 2.34375,7.890625 -2e-5,3.229178 -0.78127,5.859378 -2.34375,7.890628 -0.78127,0.98958 -1.83595,1.70573 -3.16406,2.14843 -1.32814,0.44271 -2.64324,0.66407 -3.94532,0.66407 -2.5,0 -4.81771,-0.65104 -6.95312,-1.95313 -2.13542,-1.30208 -3.20313,-3.80208 -3.20313,-7.5 l 0,-17.890623 2.65625,0 c 0.72917,2.7e-5 1.35417,0.260443 1.875,0.78125 0.52083,0.520859 0.78125,1.145858 0.78125,1.875 z m 8.90625,13.75 c -1e-5,-1.874988 -0.39063,-3.33332 -1.17187,-4.375 -0.78126,-1.093734 -1.84897,-1.640609 -3.20313,-1.640625 -1.45834,1.6e-5 -2.57813,0.520849 -3.35937,1.5625 -0.78126,1.093764 -1.17188,2.578137 -1.17188,4.453125 0,2.187513 0.36458,3.776053 1.09375,4.765623 0.78125,1.09376 1.875,1.64063 3.28125,1.64063 1.45833,0 2.57812,-0.54687 3.35938,-1.64063 0.78124,-1.09374 1.17186,-2.68228 1.17187,-4.765623 z"
         style="font-variant:normal;font-stretch:normal;fill:#000000;font-family:Harabara;-inkscape-font-specification:Harabara"
         id="path6954" />
      <path
         d="m 257.96875,109.28102 0,-24.062498 c 0,-0.781225 0.27344,-1.445287 0.82031,-1.992188 0.54688,-0.546848 1.21094,-0.820285 1.99219,-0.820312 l 9.84375,0 c 2.7604,2.7e-5 4.86977,0.572943 6.32812,1.71875 1.45832,1.250024 2.18748,2.94273 2.1875,5.078125 -2e-5,1.354185 -0.28647,2.500017 -0.85937,3.4375 -0.57294,0.885432 -1.38023,1.588557 -2.42188,2.109375 1.35415,0.572931 2.39582,1.380221 3.125,2.421875 0.67707,0.989594 1.01561,2.291676 1.01563,3.906253 -2e-5,2.60417 -0.83335,4.63542 -2.5,6.09375 -1.71877,1.40625 -4.14064,2.10937 -7.26563,2.10937 z m 5.3125,-16.484373 6.32812,0 c 1.35416,1.6e-5 2.34374,-0.234358 2.96875,-0.703125 0.62499,-0.468732 0.93749,-1.197898 0.9375,-2.1875 -1e-5,-0.989563 -0.31251,-1.718729 -0.9375,-2.1875 -0.52084,-0.416645 -1.53647,-0.624978 -3.04687,-0.625 l -6.25,0 z m 0,11.640623 6.5625,0 c 1.45832,1e-5 2.57811,-0.28645 3.35937,-0.85937 0.72916,-0.52083 1.09374,-1.40625 1.09375,-2.65625 -1e-5,-1.249993 -0.36459,-2.161451 -1.09375,-2.734378 -0.67709,-0.520822 -1.82293,-0.781238 -3.4375,-0.78125 l -6.48437,0 z"
         style="font-variant:normal;font-stretch:normal;fill:#000000;font-family:Harabara;-inkscape-font-specification:Harabara"
         id="path6956" />
      <path
         d="m 283.67187,107.40602 c -1.09375,-0.9375 -1.875,-2.20051 -2.34375,-3.78906 -0.46874,-1.58854 -0.70312,-3.24218 -0.70312,-4.960938 0,-1.406238 0.19531,-2.812487 0.58594,-4.21875 0.39062,-1.406234 1.0026,-2.578108 1.83593,-3.515625 1.35417,-1.56248 3.09896,-2.486958 5.23438,-2.773438 2.13541,-0.286437 4.06249,-0.117166 5.78125,0.507813 1.97915,0.78127 3.43748,2.135435 4.375,4.0625 0.8854,1.718765 1.32811,3.723971 1.32812,6.015625 -1e-5,1.666673 -0.18231,3.098963 -0.54687,4.296873 -0.3646,1.19792 -0.83335,2.21355 -1.40625,3.04688 -1.25002,1.71875 -2.83856,2.78646 -4.76563,3.20312 -1.71876,0.46875 -3.45052,0.50781 -5.19531,0.11719 -1.74479,-0.39063 -3.13802,-1.05469 -4.17969,-1.99219 z m 3.75,-13.749998 c -1.09375,1.197931 -1.58854,2.981783 -1.48437,5.351562 0.10416,2.369796 0.54687,4.023446 1.32812,4.960936 0.3125,0.41667 0.85937,0.76824 1.64063,1.05469 0.78124,0.28646 1.57551,0.3125 2.38281,0.0781 0.80728,-0.23437 1.52343,-0.8203 2.14844,-1.75781 0.62499,-0.93749 0.96353,-2.44791 1.01562,-4.531248 -1e-5,-1.874988 -0.29949,-3.281236 -0.89843,-4.21875 -0.59897,-0.937484 -1.28908,-1.536442 -2.07032,-1.796875 -0.78125,-0.2604 -1.5625,-0.273421 -2.34375,-0.03906 -0.78125,0.234392 -1.35417,0.533871 -1.71875,0.898438 z"
         style="font-variant:normal;font-stretch:normal;fill:#000000;font-family:Harabara;-inkscape-font-specification:Harabara"
         id="path6958" />
      <path
         d="m 303.20312,107.40602 c -1.09375,-0.9375 -1.875,-2.20051 -2.34375,-3.78906 -0.46874,-1.58854 -0.70312,-3.24218 -0.70312,-4.960938 0,-1.406238 0.19531,-2.812487 0.58594,-4.21875 0.39062,-1.406234 1.0026,-2.578108 1.83593,-3.515625 1.35417,-1.56248 3.09896,-2.486958 5.23438,-2.773438 2.13541,-0.286437 4.06249,-0.117166 5.78125,0.507813 1.97915,0.78127 3.43748,2.135435 4.375,4.0625 0.8854,1.718765 1.32811,3.723971 1.32812,6.015625 -1e-5,1.666673 -0.18231,3.098963 -0.54687,4.296873 -0.3646,1.19792 -0.83335,2.21355 -1.40625,3.04688 -1.25002,1.71875 -2.83856,2.78646 -4.76563,3.20312 -1.71876,0.46875 -3.45052,0.50781 -5.19531,0.11719 -1.74479,-0.39063 -3.13802,-1.05469 -4.17969,-1.99219 z m 3.75,-13.749998 c -1.09375,1.197931 -1.58854,2.981783 -1.48437,5.351562 0.10416,2.369796 0.54687,4.023446 1.32812,4.960936 0.3125,0.41667 0.85937,0.76824 1.64063,1.05469 0.78124,0.28646 1.57551,0.3125 2.38281,0.0781 0.80728,-0.23437 1.52343,-0.8203 2.14844,-1.75781 0.62499,-0.93749 0.96353,-2.44791 1.01562,-4.531248 -1e-5,-1.874988 -0.29949,-3.281236 -0.89843,-4.21875 -0.59897,-0.937484 -1.28908,-1.536442 -2.07032,-1.796875 -0.78125,-0.2604 -1.5625,-0.273421 -2.34375,-0.03906 -0.78125,0.234392 -1.35417,0.533871 -1.71875,0.898438 z"
         style="font-variant:normal;font-stretch:normal;fill:#000000;font-family:Harabara;-inkscape-font-specification:Harabara"
         id="path6960" />
      <path
         d="m 325.625,88.499772 0,0 0,7.65625 6.64062,-7.65625 6.5625,0 -7.42187,7.96875 7.5,12.812498 -6.5625,0 -3.82813,-7.03125 c -0.78125,-1.40624 -1.45834,-2.0052 -2.03125,-1.79687 -0.57292,0.20834 -0.85938,0.52084 -0.85937,0.9375 l 0,2.89062 0,5 -5.46875,0 0,-26.874998 2.8125,0 c 0.72916,2.7e-5 1.35416,0.260443 1.875,0.78125 0.52083,0.520859 0.78124,1.119817 0.78125,1.796875 z"
         style="font-variant:normal;font-stretch:normal;fill:#000000;font-family:Harabara;-inkscape-font-specification:Harabara"
         id="path6962" />
    </g>
    <path
       style="opacity:0.27444171;fill:#000000;fill-opacity:1;stroke:none"
       d="m 215.32631,510.12135 c 0.70003,11.62029 1.33952,23.4896 2.33749,34.94807 14.02489,-0.19784 28.09194,0.41956 42.09147,-0.36786 2.17542,-0.63398 0.48007,-4.00651 1.18082,-5.59545 0.349,-10.61593 1.5231,-21.49302 1.07318,-31.96117 -15.4942,0 -30.9884,0 -46.4826,0 -0.52169,0.70219 -0.134,2.07531 -0.20036,2.97641 z m 5.25934,2.99314 c 0.94245,-1.28997 3.74448,-0.25622 5.15894,-0.67959 3.63978,-0.014 7.27978,0 10.91964,-0.006 0,9.29718 0,18.59443 0,27.89161 -4.8308,0 -9.66161,0 -14.49242,0 -0.30113,-9.07749 -1.13392,-18.13475 -1.58616,-27.20601 z m 20.30276,11.82218 c 0.0363,-1.35526 0.013,-6.17026 0.36731,-5.50139 0.26994,4.91647 0.40317,11.18843 -0.11687,15.3336 -0.33088,-3.26111 -0.24713,-6.55829 -0.25044,-9.83221 z"
       id="path6067"
       inkscape:connector-curvature="0" />
    <text
       xml:space="preserve"
       style="font-size:40px;font-style:normal;font-variant:normal;font-weight:normal;font-stretch:normal;line-height:125%;letter-spacing:0px;word-spacing:0px;fill:#e6e6e6;fill-opacity:1;stroke:none;font-family:Arial;-inkscape-font-specification:Arial"
       x="124.67599"
       y="525.33667"
       id="text6076"
       sodipodi:linespacing="125%"><tspan
         sodipodi:role="line"
         id="tspan6078"
         x="124.67599"
         y="525.33667">1</tspan></text>
    <text
       xml:space="preserve"
       style="font-size:40px;font-style:normal;font-variant:normal;font-weight:normal;font-stretch:normal;line-height:125%;letter-spacing:0px;word-spacing:0px;fill:#e6e6e6;fill-opacity:1;stroke:none;font-family:Arial;-inkscape-font-specification:Arial"
       x="123.6506"
       y="461.15042"
       id="text6076-1"
       sodipodi:linespacing="125%"><tspan
         sodipodi:role="line"
         id="tspan6078-1"
         x="123.6506"
         y="461.15042">2</tspan></text>
    <text
       xml:space="preserve"
       style="font-size:40px;font-style:normal;font-variant:normal;font-weight:normal;font-stretch:normal;line-height:125%;letter-spacing:0px;word-spacing:0px;fill:#e6e6e6;fill-opacity:1;stroke:none;font-family:Arial;-inkscape-font-specification:Arial"
       x="123.25021"
       y="396.71054"
       id="text6076-5"
       sodipodi:linespacing="125%"><tspan
         sodipodi:role="line"
         id="tspan6078-2"
         x="123.25021"
         y="396.71054">3</tspan></text>
    <text
       xml:space="preserve"
       style="font-size:40px;font-style:normal;font-variant:normal;font-weight:normal;font-stretch:normal;line-height:125%;letter-spacing:0px;word-spacing:0px;fill:#ececec;fill-opacity:1;stroke:none;font-family:Arial;-inkscape-font-specification:Arial"
       x="169.66965"
       y="344.57687"
       id="text6076-7"
       sodipodi:linespacing="125%"><tspan
         sodipodi:role="line"
         id="tspan6078-6"
         x="169.66965"
         y="344.57687">A</tspan></text>
    <text
       xml:space="preserve"
       style="font-size:40px;font-style:normal;font-variant:normal;font-weight:normal;font-stretch:normal;line-height:125%;letter-spacing:0px;word-spacing:0px;fill:#ececec;fill-opacity:1;stroke:none;font-family:Arial;-inkscape-font-specification:Arial"
       x="298.1926"
       y="344.57687"
       id="text6076-14"
       sodipodi:linespacing="125%"><tspan
         sodipodi:role="line"
         id="tspan6078-23"
         x="298.1926"
         y="344.57687">B</tspan></text>
    <text
       xml:space="preserve"
       style="font-size:40px;font-style:normal;font-variant:normal;font-weight:normal;font-stretch:normal;line-height:125%;letter-spacing:0px;word-spacing:0px;fill:#ffffff;fill-opacity:1;stroke:none;font-family:Arial;-inkscape-font-specification:Arial"
       x="345.60422"
       y="396.72031"
       id="text6076-2"
       sodipodi:linespacing="125%"><tspan
         sodipodi:role="line"
         id="tspan6078-21"
         x="345.60422"
         y="396.72031">6</tspan></text>
    <text
       xml:space="preserve"
       style="font-size:40px;font-style:normal;font-variant:normal;font-weight:normal;font-stretch:normal;line-height:125%;letter-spacing:0px;word-spacing:0px;fill:#ffffff;fill-opacity:1;stroke:none;font-family:Arial;-inkscape-font-specification:Arial"
       x="345.40891"
       y="460.65256"
       id="text6076-6"
       sodipodi:linespacing="125%"><tspan
         sodipodi:role="line"
         id="tspan6078-8"
         x="345.40891"
         y="460.65256">5</tspan></text>
    <text
       xml:space="preserve"
       style="font-size:40px;font-style:normal;font-variant:normal;font-weight:normal;font-stretch:normal;line-height:125%;letter-spacing:0px;word-spacing:0px;fill:#ffffff;fill-opacity:1;stroke:none;font-family:Arial;-inkscape-font-specification:Arial"
       x="346.15109"
       y="525.27808"
       id="text6076-57"
       sodipodi:linespacing="125%"><tspan
         sodipodi:role="line"
         id="tspan6078-61"
         x="346.15109"
         y="525.27808">4</tspan></text>
    <path
       inkscape:connector-curvature="0"
       d="m 330.27901,563.6096 -4.9915,-2.8825 0,2.0563 -25.5127,0 4.9676,-5.2484 c 0.4228,-0.3388 0.9759,-0.5766 1.5449,-0.5897 2.3019,0 3.6688,0 4.172,0 0.3411,0.9718 1.2572,1.6731 2.3463,1.6731 1.3779,0 2.496,-1.118 2.496,-2.4963 0,-1.3789 -1.118,-2.4966 -2.496,-2.4966 -1.0891,0 -2.0052,0.701 -2.3463,1.6719 l -4.1231,0 c -1.1174,0 -2.2884,0.6131 -3.0336,1.3318 0.02,-0.021 0.041,-0.044 0,0 -0.016,0.018 -5.2705,5.5678 -5.2705,5.5678 -0.4219,0.3383 -0.9747,0.5746 -1.5433,0.5881 l -2.8861,0 c -0.3826,-1.9066 -2.0663,-3.3431 -4.0859,-3.3431 -2.3027,0 -4.1692,1.8665 -4.1692,4.1685 0,2.3026 1.8665,4.1693 4.1692,4.1693 2.02,0 3.7037,-1.4377 4.0863,-3.3459 l 2.8355,0 c 0.01,0 0.015,0 0.022,0 l 6.2717,0 c 0.5675,0.014 1.1197,0.25101 1.5411,0.5897 0,0 5.2536,5.5496 5.2698,5.5676 0.042,0.045 0.021,0.021 0,0 0.7453,0.7186 1.9167,1.3313 3.0344,1.3313 l 3.9734,0 0,1.6736 4.9928,0 0,-4.9922 -4.9928,0 0,1.6714 c 0,0 -1.0465,0 -4.0221,0 -0.5691,-0.013 -1.1229,-0.2505 -1.5454,-0.5893 l -4.9687,-5.2493 19.2736,0 0,2.0595 4.9914,-2.8821 z"
       id="path1334"
       style="opacity:0.27999998" />
  </g>
</svg>
