<?xml version="1.0" encoding="UTF-8" standalone="no"?>
<!-- Created with Inkscape (http://www.inkscape.org/) -->

<svg
   xmlns:dc="http://purl.org/dc/elements/1.1/"
   xmlns:cc="http://creativecommons.org/ns#"
   xmlns:rdf="http://www.w3.org/1999/02/22-rdf-syntax-ns#"
   xmlns:svg="http://www.w3.org/2000/svg"
   xmlns="http://www.w3.org/2000/svg"
   xmlns:sodipodi="http://sodipodi.sourceforge.net/DTD/sodipodi-0.dtd"
   xmlns:inkscape="http://www.inkscape.org/namespaces/inkscape"
   width="171.5406"
   height="208.5072"
   id="svg4128"
   version="1.1"
   inkscape:version="0.48.4 r9939"
   sodipodi:docname="Labbook Collect Icon.svg">
  <defs
     id="defs4130" />
  <sodipodi:namedview
     id="base"
     pagecolor="#ffffff"
     bordercolor="#666666"
     borderopacity="1.0"
     inkscape:pageopacity="0.0"
     inkscape:pageshadow="2"
     inkscape:zoom="1.979899"
     inkscape:cx="0.88634596"
     inkscape:cy="138.0082"
     inkscape:document-units="px"
     inkscape:current-layer="layer1"
     showgrid="false"
     fit-margin-top="0"
     fit-margin-left="0"
     fit-margin-right="0"
     fit-margin-bottom="0"
     inkscape:window-width="1536"
     inkscape:window-height="803"
     inkscape:window-x="-8"
     inkscape:window-y="-8"
     inkscape:window-maximized="1" />
  <metadata
     id="metadata4133">
    <rdf:RDF>
      <cc:Work
         rdf:about="">
        <dc:format>image/svg+xml</dc:format>
        <dc:type
           rdf:resource="http://purl.org/dc/dcmitype/StillImage" />
        <dc:title />
      </cc:Work>
    </rdf:RDF>
  </metadata>
  <g
     inkscape:label="Layer 1"
     inkscape:groupmode="layer"
     id="layer1"
     transform="translate(-377.08687,-342.39433)">
    <path
       sodipodi:type="arc"
       style="fill:#b3b3b3;fill-opacity:1;stroke:none"
       id="path3906-9-8-6-7"
       sodipodi:cx="-2543.75"
       sodipodi:cy="-335.13782"
       sodipodi:rx="56.25"
       sodipodi:ry="56.25"
       d="m -2487.5,-335.13782 a 56.25,56.25 0 1 1 -112.5,0 56.25,56.25 0 1 1 112.5,0 z"
       transform="matrix(1.5248054,0,0,1.5248054,4341.5809,939.18459)" />
    <path
       sodipodi:type="arc"
       style="fill:#ffffff;fill-opacity:1;stroke:none"
       id="path3906-3-84-0-1-4"
       sodipodi:cx="-2543.75"
       sodipodi:cy="-335.13782"
       sodipodi:rx="56.25"
       sodipodi:ry="56.25"
       d="m -2487.5,-335.13782 a 56.25,56.25 0 1 1 -112.5,0 56.25,56.25 0 1 1 112.5,0 z"
       transform="matrix(0.27439263,0,0,0.27439263,1101.518,520.19729)" />
    <path
       sodipodi:type="arc"
       style="fill:#ffffff;fill-opacity:1;stroke:none"
       id="path3906-3-8-7-1-8-0"
       sodipodi:cx="-2543.75"
       sodipodi:cy="-335.13782"
       sodipodi:rx="56.25"
       sodipodi:ry="56.25"
       d="m -2487.5,-335.13782 a 56.25,56.25 0 1 1 -112.5,0 56.25,56.25 0 1 1 112.5,0 z"
       transform="matrix(0.27439263,0,0,0.27439263,1160.5822,464.41059)" />
    <path
       style="fill:none;stroke:#ffffff;stroke-width:4.64663172px;stroke-linecap:butt;stroke-linejoin:miter;stroke-opacity:1"
       d="m 403.95284,427.39561 c 15.72372,0 -19.77504,-2.0489 47.17135,0 l 12.5147,-55.44001 11.07088,94.609 37.61071,0"
       id="path3951-6-2-6-9"
       inkscape:connector-curvature="0"
       sodipodi:nodetypes="cccc" />
    <g
       transform="matrix(1.0740005,0,0,1.0740005,188.50776,432.77849)"
       style="font-size:40px;font-style:normal;font-weight:normal;line-height:125%;letter-spacing:0px;word-spacing:0px;fill:#000000;fill-opacity:1;stroke:none;font-family:Sans"
       id="flowRoot6992-2-8-3-5-2-4">
      <path
         d="m 223.98437,99.984147 c -0.26044,3.125003 -1.43231,5.572923 -3.51562,7.343753 -2.13544,1.71875 -4.94793,2.57812 -8.4375,2.57812 -4.06251,0 -7.16146,-1.22396 -9.29688,-3.67187 -2.13541,-2.34375 -3.20312,-5.80729 -3.20312,-10.390628 0,-4.687482 1.09375,-8.203103 3.28125,-10.546875 2.23958,-2.44789 5.46874,-3.671847 9.6875,-3.671875 3.43748,2.8e-5 6.17186,0.859402 8.20312,2.578125 1.92707,1.66669 3.02081,4.010438 3.28125,7.03125 l -3.35937,0 c -1.25002,1.8e-5 -2.13544,-0.546857 -2.65625,-1.640625 l 0,0 c -0.3646,-0.677063 -0.80731,-1.276021 -1.32813,-1.796875 -1.04168,-0.781228 -2.42188,-1.171852 -4.14062,-1.171875 -2.39584,2.3e-5 -4.2448,0.781272 -5.54688,2.34375 -1.25,1.562519 -1.875,3.854183 -1.875,6.875 0,2.916677 0.625,5.156258 1.875,6.718748 1.19791,1.61459 2.99479,2.42188 5.39063,2.42188 1.66665,0 3.04686,-0.41667 4.14062,-1.25 0.98957,-0.78125 1.6927,-2.03125 2.10938,-3.750003 z"
         style="font-variant:normal;font-stretch:normal;fill:#000000;font-family:Harabara;-inkscape-font-specification:Harabara"
         id="path4201" />
      <path
         d="m 227.73437,107.40602 c -1.09375,-0.9375 -1.875,-2.20051 -2.34375,-3.78906 -0.46874,-1.58854 -0.70312,-3.24218 -0.70312,-4.960938 0,-1.406238 0.19531,-2.812487 0.58594,-4.21875 0.39062,-1.406234 1.0026,-2.578108 1.83593,-3.515625 1.35417,-1.56248 3.09896,-2.486958 5.23438,-2.773438 2.13541,-0.286437 4.06249,-0.117166 5.78125,0.507813 1.97915,0.78127 3.43748,2.135435 4.375,4.0625 0.8854,1.718765 1.32811,3.723971 1.32812,6.015625 -1e-5,1.666673 -0.18231,3.098963 -0.54687,4.296873 -0.3646,1.19792 -0.83335,2.21355 -1.40625,3.04688 -1.25002,1.71875 -2.83856,2.78646 -4.76563,3.20312 -1.71876,0.46875 -3.45052,0.50781 -5.19531,0.11719 -1.74479,-0.39063 -3.13802,-1.05469 -4.17969,-1.99219 z m 3.75,-13.749998 c -1.09375,1.197931 -1.58854,2.981783 -1.48437,5.351562 0.10416,2.369796 0.54687,4.023446 1.32812,4.960936 0.3125,0.41667 0.85937,0.76824 1.64063,1.05469 0.78124,0.28646 1.57551,0.3125 2.38281,0.0781 0.80728,-0.23437 1.52343,-0.8203 2.14844,-1.75781 0.62499,-0.93749 0.96353,-2.44791 1.01562,-4.531248 -1e-5,-1.874988 -0.29949,-3.281236 -0.89843,-4.21875 -0.59897,-0.937484 -1.28908,-1.536442 -2.07032,-1.796875 -0.78125,-0.2604 -1.5625,-0.273421 -2.34375,-0.03906 -0.78125,0.234392 -1.35417,0.533871 -1.71875,0.898438 z"
         style="font-variant:normal;font-stretch:normal;fill:#000000;font-family:Harabara;-inkscape-font-specification:Harabara"
         id="path4203" />
      <path
         d="m 244.92187,82.406022 2.8125,0 c 0.72917,2.7e-5 1.35417,0.247422 1.875,0.742187 0.52083,0.494818 0.78125,1.106796 0.78125,1.835938 l 0,24.296873 -5.46875,0 z"
         style="font-variant:normal;font-stretch:normal;fill:#000000;font-family:Harabara;-inkscape-font-specification:Harabara"
         id="path4205" />
      <path
         d="m 251.5625,82.406022 2.8125,0 c 0.72916,2.7e-5 1.35416,0.247422 1.875,0.742187 0.52083,0.494818 0.78124,1.106796 0.78125,1.835938 l 0,24.296873 -5.46875,0 z"
         style="font-variant:normal;font-stretch:normal;fill:#000000;font-family:Harabara;-inkscape-font-specification:Harabara"
         id="path4207" />
      <path
         d="m 272.42187,102.87477 3.90625,0 c -0.57293,2.18751 -1.66668,3.85417 -3.28125,5 -1.61459,1.19792 -3.64584,1.79688 -6.09375,1.79688 -2.96875,0 -5.28646,-0.96354 -6.95312,-2.89063 -1.66667,-1.87499 -2.5,-4.55728 -2.5,-8.046873 0,-3.33332 0.80729,-5.937484 2.42187,-7.8125 1.66667,-1.927063 3.98437,-2.890604 6.95313,-2.890625 3.12499,2.1e-5 5.54686,0.93752 7.26562,2.8125 1.66665,1.9271 2.49999,4.609389 2.5,8.046875 -1e-5,0.208343 -1e-5,0.390635 0,0.546875 -1e-5,0.15626 -1e-5,0.260426 0,0.3125 -1e-5,0.260428 -0.0261,0.442718 -0.0781,0.546878 l -13.51563,0 c 0.0521,1.61459 0.44271,2.8125 1.17188,3.59375 0.67708,0.83333 1.6927,1.25 3.04687,1.25 0.88541,0 1.64062,-0.18229 2.26563,-0.54688 0.15624,-0.0521 0.29947,-0.14322 0.42969,-0.27344 0.13019,-0.1302 0.27342,-0.27343 0.42968,-0.42968 0.0521,-0.15625 0.24739,-0.36458 0.58594,-0.625 0.33853,-0.26041 0.8203,-0.39062 1.44531,-0.39063 z m -9.375,-6.093748 7.96875,0 c -0.10417,-1.406236 -0.46876,-2.447902 -1.09375,-3.125 -0.67709,-0.72915 -1.64063,-1.093733 -2.89062,-1.09375 -1.14584,1.7e-5 -2.08334,0.3646 -2.8125,1.09375 -0.72917,0.729181 -1.1198,1.770847 -1.17188,3.125 z"
         style="font-variant:normal;font-stretch:normal;fill:#000000;font-family:Harabara;-inkscape-font-specification:Harabara"
         id="path4209" />
      <path
         d="m 291.95312,102.87477 3.90625,0 c -0.57293,2.18751 -1.66668,3.85417 -3.28125,5 -1.61459,1.19792 -3.64584,1.79688 -6.09375,1.79688 -2.96875,0 -5.28646,-0.96354 -6.95312,-2.89063 -1.66667,-1.87499 -2.5,-4.55728 -2.5,-8.046873 0,-3.33332 0.80729,-5.937484 2.42187,-7.8125 1.66667,-1.927063 3.98437,-2.890604 6.95313,-2.890625 3.12499,2.1e-5 5.54686,0.93752 7.26562,2.8125 0.93749,1.145851 1.61457,2.473974 2.03125,3.984375 l -5.46875,0 c -0.26042,-0.520818 -0.52084,-0.911443 -0.78125,-1.171875 -0.67709,-0.72915 -1.64063,-1.093733 -2.89062,-1.09375 -1.14584,1.7e-5 -2.08334,0.3646 -2.8125,1.09375 -0.93751,1.041681 -1.40625,2.760429 -1.40625,5.15625 0,2.395838 0.46874,4.088548 1.40625,5.078128 0.67708,0.83333 1.6927,1.25 3.04687,1.25 0.88541,0 1.64062,-0.18229 2.26563,-0.54688 0.15624,-0.0521 0.29947,-0.14322 0.42969,-0.27344 0.13019,-0.1302 0.27342,-0.27343 0.42968,-0.42968 0.10416,-0.15625 0.31249,-0.36458 0.625,-0.625 0.31249,-0.26041 0.78124,-0.39062 1.40625,-0.39063 z"
         style="font-variant:normal;font-stretch:normal;fill:#000000;font-family:Harabara;-inkscape-font-specification:Harabara"
         id="path4211" />
      <path
         d="m 305.9375,109.28102 c -1.71876,0.10417 -3.58073,0.0781 -5.58594,-0.0781 -2.00521,-0.15625 -3.00781,-1.43229 -3.00781,-3.82813 l 0,-22.968748 2.8125,0 c 0.67708,2.7e-5 1.27604,0.260443 1.79687,0.78125 0.52083,0.520859 0.78125,1.145858 0.78125,1.875 l 0,3.515625 3.20313,0 0,1.09375 c -10e-6,0.781269 -0.26043,1.419289 -0.78125,1.914062 -0.52084,0.494809 -1.14584,0.742205 -1.875,0.742188 l -0.54688,0 0,11.562503 c 0,0.88542 0.52083,1.32813 1.5625,1.32812 l 1.64063,0 z"
         style="font-variant:normal;font-stretch:normal;fill:#000000;font-family:Harabara;-inkscape-font-specification:Harabara"
         id="path4213" />
    </g>
    <path
       sodipodi:type="arc"
       style="fill:#ffffff;fill-opacity:1;stroke:none"
       id="path3906-3-8-7-5-7-2-4"
       sodipodi:cx="-2543.75"
       sodipodi:cy="-335.13782"
       sodipodi:rx="56.25"
       sodipodi:ry="56.25"
       d="m -2487.5,-335.13782 a 56.25,56.25 0 1 1 -112.5,0 56.25,56.25 0 1 1 112.5,0 z"
       transform="matrix(0.27439263,0,0,0.27439263,1210.3066,556.99211)" />
  </g>
</svg>
