<?xml version="1.0" encoding="UTF-8" standalone="no"?>
<!-- Created with Inkscape (http://www.inkscape.org/) -->

<svg
   xmlns:dc="http://purl.org/dc/elements/1.1/"
   xmlns:cc="http://creativecommons.org/ns#"
   xmlns:rdf="http://www.w3.org/1999/02/22-rdf-syntax-ns#"
   xmlns:svg="http://www.w3.org/2000/svg"
   xmlns="http://www.w3.org/2000/svg"
   xmlns:sodipodi="http://sodipodi.sourceforge.net/DTD/sodipodi-0.dtd"
   xmlns:inkscape="http://www.inkscape.org/namespaces/inkscape"
   width="171.5406"
   height="217.14949"
   id="svg5246"
   version="1.1"
   inkscape:version="0.48.4 r9939"
   sodipodi:docname="Settings.svg">
  <defs
     id="defs5248" />
  <sodipodi:namedview
     id="base"
     pagecolor="#ffffff"
     bordercolor="#666666"
     borderopacity="1.0"
     inkscape:pageopacity="0.0"
     inkscape:pageshadow="2"
     inkscape:zoom="0.35"
     inkscape:cx="157.91314"
     inkscape:cy="8.5747439"
     inkscape:document-units="px"
     inkscape:current-layer="layer1"
     showgrid="false"
     inkscape:window-width="463"
     inkscape:window-height="423"
     inkscape:window-x="78"
     inkscape:window-y="78"
     inkscape:window-maximized="0"
     fit-margin-top="0"
     fit-margin-left="0"
     fit-margin-right="0"
     fit-margin-bottom="0" />
  <metadata
     id="metadata5251">
    <rdf:RDF>
      <cc:Work
         rdf:about="">
        <dc:format>image/svg+xml</dc:format>
        <dc:type
           rdf:resource="http://purl.org/dc/dcmitype/StillImage" />
        <dc:title />
      </cc:Work>
    </rdf:RDF>
  </metadata>
  <g
     inkscape:label="Layer 1"
     inkscape:groupmode="layer"
     id="layer1"
     transform="translate(-217.08686,-323.78744)">
    <path
       sodipodi:type="arc"
       style="fill:#b3b3b3;fill-opacity:1;stroke:none"
       id="path3906-9-8-6-2-2"
       sodipodi:cx="-2543.75"
       sodipodi:cy="-335.13782"
       sodipodi:rx="56.25"
       sodipodi:ry="56.25"
       d="m -2487.5,-335.13782 c 0,31.06602 -25.184,56.25 -56.25,56.25 -31.066,0 -56.25,-25.18398 -56.25,-56.25 0,-31.06601 25.184,-56.25 56.25,-56.25 31.066,0 56.25,25.18399 56.25,56.25 z"
       transform="matrix(1.5248054,0,0,1.5248054,4181.5809,920.5777)" />
    <g
       transform="matrix(1.0740005,0,0,1.0740005,18.895289,414.17155)"
       style="font-size:40px;font-style:normal;font-weight:normal;line-height:125%;letter-spacing:0px;word-spacing:0px;fill:#000000;fill-opacity:1;stroke:none;font-family:Sans"
       id="flowRoot6992-2-8-3-5-2-5-3">
      <path
         d="m 200,100.92165 5.46875,0 c 0.20833,1.5625 0.80729,2.65625 1.79687,3.28125 1.04166,0.72917 2.47395,1.09375 4.29688,1.09375 1.61457,0 2.83853,-0.28646 3.67187,-0.85938 0.83332,-0.57291 1.24999,-1.40624 1.25,-2.5 -1e-5,-1.66666 -2.34376,-3.020821 -7.03125,-4.062498 l -0.15625,-0.07813 c 0,1.1e-5 -0.20834,-0.05207 -0.625,-0.15625 -2.65625,-0.572905 -4.42708,-1.171862 -5.3125,-1.796875 -1.04166,-0.572903 -1.77083,-1.406235 -2.1875,-2.5 -0.52083,-0.937483 -0.78125,-2.135399 -0.78125,-3.59375 0,-2.552061 0.88542,-4.557268 2.65625,-6.015625 1.77083,-1.406223 4.34896,-2.109347 7.73438,-2.109375 3.17707,2.8e-5 5.62498,0.729193 7.34375,2.1875 1.77081,1.614607 2.70831,3.72398 2.8125,6.328125 l -3.125,0 c -1.19793,1.9e-5 -2.05731,-0.546855 -2.57813,-1.640625 l 0,0 c -0.26043,-0.520812 -0.62501,-0.96352 -1.09375,-1.328125 -0.93751,-0.677061 -2.21355,-1.015602 -3.82812,-1.015625 -1.56251,2.3e-5 -2.6823,0.286481 -3.35938,0.859375 -0.78125,0.572938 -1.17188,1.380229 -1.17187,2.421875 -1e-5,1.406268 1.51041,2.447934 4.53125,3.125 0.88541,0.260433 1.53645,0.416683 1.95312,0.46875 0.93749,0.312516 1.7578,0.559911 2.46094,0.742187 0.70311,0.182307 1.26301,0.325536 1.67969,0.429688 0.72915,0.312515 1.45832,0.625014 2.1875,0.9375 1.04165,0.625013 1.84894,1.432304 2.42187,2.421875 0.5729,1.093761 0.85936,2.291676 0.85938,3.593748 -2e-5,2.81251 -0.93752,5.00001 -2.8125,6.5625 -1.87502,1.45834 -4.53126,2.1875 -7.96875,2.1875 -3.54167,0 -6.19792,-0.75521 -7.96875,-2.26562 -1.92708,-1.51042 -2.96875,-3.75 -3.125,-6.71875 z"
         style="font-variant:normal;font-stretch:normal;fill:#000000;font-family:Harabara;-inkscape-font-specification:Harabara"
         id="path5298" />
      <path
         d="m 237.42187,102.87477 3.90625,0 c -0.57293,2.18751 -1.66668,3.85417 -3.28125,5 -1.61459,1.19792 -3.64584,1.79688 -6.09375,1.79688 -2.96875,0 -5.28646,-0.96354 -6.95312,-2.89063 -1.66667,-1.87499 -2.5,-4.55728 -2.5,-8.046873 0,-3.33332 0.80729,-5.937484 2.42187,-7.8125 1.66667,-1.927063 3.98437,-2.890604 6.95313,-2.890625 3.12499,2.1e-5 5.54686,0.93752 7.26562,2.8125 1.66665,1.9271 2.49999,4.609389 2.5,8.046875 -1e-5,0.208343 -1e-5,0.390635 0,0.546875 -1e-5,0.15626 -1e-5,0.260426 0,0.3125 -1e-5,0.260428 -0.0261,0.442718 -0.0781,0.546878 l -13.51563,0 c 0.0521,1.61459 0.44271,2.8125 1.17188,3.59375 0.67708,0.83333 1.6927,1.25 3.04687,1.25 0.88541,0 1.64062,-0.18229 2.26563,-0.54688 0.15624,-0.0521 0.29947,-0.14322 0.42969,-0.27344 0.13019,-0.1302 0.27342,-0.27343 0.42968,-0.42968 0.0521,-0.15625 0.24739,-0.36458 0.58594,-0.625 0.33853,-0.26041 0.8203,-0.39062 1.44531,-0.39063 z m -9.375,-6.093748 7.96875,0 c -0.10417,-1.406236 -0.46876,-2.447902 -1.09375,-3.125 -0.67709,-0.72915 -1.64063,-1.093733 -2.89062,-1.09375 -1.14584,1.7e-5 -2.08334,0.3646 -2.8125,1.09375 -0.72917,0.729181 -1.1198,1.770847 -1.17188,3.125 z"
         style="font-variant:normal;font-stretch:normal;fill:#000000;font-family:Harabara;-inkscape-font-specification:Harabara"
         id="path5300" />
      <path
         d="m 251.71875,109.28102 c -1.71876,0.10417 -3.58073,0.0781 -5.58594,-0.0781 -2.00521,-0.15625 -3.00781,-1.43229 -3.00781,-3.82813 l 0,-22.968748 2.8125,0 c 0.67708,2.7e-5 1.27604,0.260443 1.79687,0.78125 0.52083,0.520859 0.78125,1.145858 0.78125,1.875 l 0,3.515625 3.20313,0 0,1.09375 c -1e-5,0.781269 -0.26043,1.419289 -0.78125,1.914062 -0.52084,0.494809 -1.14584,0.742205 -1.875,0.742188 l -0.54688,0 0,11.562503 c 0,0.88542 0.52083,1.32813 1.5625,1.32812 l 1.64063,0 z"
         style="font-variant:normal;font-stretch:normal;fill:#000000;font-family:Harabara;-inkscape-font-specification:Harabara"
         id="path5302" />
      <path
         d="m 261.40625,109.28102 c -1.71876,0.10417 -3.58073,0.0781 -5.58594,-0.0781 -2.00521,-0.15625 -3.00781,-1.43229 -3.00781,-3.82813 l 0,-22.968748 2.8125,0 c 0.67708,2.7e-5 1.27604,0.260443 1.79687,0.78125 0.52083,0.520859 0.78125,1.145858 0.78125,1.875 l 0,3.515625 3.20313,0 0,1.09375 c -10e-6,0.781269 -0.26043,1.419289 -0.78125,1.914062 -0.52084,0.494809 -1.14584,0.742205 -1.875,0.742188 l -0.54688,0 0,11.562503 c 0,0.88542 0.52083,1.32813 1.5625,1.32812 l 1.64063,0 z"
         style="font-variant:normal;font-stretch:normal;fill:#000000;font-family:Harabara;-inkscape-font-specification:Harabara"
         id="path5304" />
      <path
         d="m 262.34375,88.499772 2.8125,0 c 0.72916,2.1e-5 1.35416,0.260437 1.875,0.78125 0.52083,0.520853 0.78124,1.145852 0.78125,1.875 l 0,18.124998 -5.46875,0 z m 0,-6.09375 2.8125,0 c 0.72916,2.7e-5 1.35416,0.260443 1.875,0.78125 0.52083,0.520859 0.78124,1.145858 0.78125,1.875 l 0,1.640625 -5.46875,0 z"
         style="font-variant:normal;font-stretch:normal;fill:#000000;font-family:Harabara;-inkscape-font-specification:Harabara"
         id="path5306" />
      <path
         d="m 286.17187,109.28102 -2.73437,0 c -0.78126,0 -1.41928,-0.24739 -1.91406,-0.74219 -0.49481,-0.49479 -0.7422,-1.13281 -0.74219,-1.91406 l 0,0 0,-10.624998 c -10e-6,-1.249986 -0.37762,-2.161443 -1.13281,-2.734375 -0.75522,-0.5729 -1.60157,-0.859358 -2.53907,-0.859375 -0.9375,1.7e-5 -1.77084,0.286475 -2.5,0.859375 -0.72917,0.572932 -1.09375,1.484389 -1.09375,2.734375 l 0,13.281248 -5.46875,0 0,-12.187498 c 0,-3.541651 0.92448,-5.91144 2.77344,-7.109375 1.84896,-1.197896 3.89322,-1.848937 6.13281,-1.953125 2.29166,2.1e-5 4.40103,0.598979 6.32813,1.796875 1.92707,1.197935 2.89061,3.619807 2.89062,7.265625 z"
         style="font-variant:normal;font-stretch:normal;fill:#000000;font-family:Harabara;-inkscape-font-specification:Harabara"
         id="path5308" />
      <path
         d="m 300.78125,108.03102 0,-1.32812 c -0.93751,1.45833 -2.20053,2.36979 -3.78906,2.73437 -1.58855,0.36458 -3.16407,0.23438 -4.72657,-0.39062 -1.5625,-0.625 -2.90364,-1.78386 -4.02343,-3.47657 -1.11979,-1.6927 -1.67969,-3.91926 -1.67969,-6.679683 0,-3.229153 0.74219,-5.846338 2.22656,-7.851563 1.48437,-2.005188 3.86718,-3.007791 7.14844,-3.007812 2.49999,2.1e-5 4.81769,0.677104 6.95312,2.03125 2.1354,1.354184 3.20311,3.854182 3.20313,7.5 l 0,11.015628 c -2e-5,3.64583 -1.06773,6.1328 -3.20313,7.46093 -2.13543,1.32812 -4.45313,1.99218 -6.95312,1.99219 -4.79167,-1e-5 -7.76042,-2.23959 -8.90625,-6.71875 l 5.70312,0 c 0.41667,0.72917 1.05469,1.28906 1.91407,1.67969 0.85936,0.39062 1.71874,0.49479 2.57812,0.3125 0.85937,-0.1823 1.64062,-0.69011 2.34375,-1.52344 0.70311,-0.83333 1.10676,-2.08333 1.21094,-3.75 z M 291.875,99.046647 c 0,3.593753 1.04166,5.585943 3.125,5.976563 2.08332,0.39063 3.61978,-0.0911 4.60937,-1.44531 0.46874,-0.57291 0.80728,-1.47135 1.01563,-2.69532 0.20832,-1.223944 0.22134,-2.434881 0.0391,-3.632808 -0.1823,-1.197904 -0.61199,-2.265611 -1.28906,-3.203125 -0.6771,-0.937484 -1.66668,-1.406233 -2.96875,-1.40625 -1.77084,1.7e-5 -2.96876,0.651058 -3.59375,1.953125 -0.62501,1.302097 -0.9375,2.78647 -0.9375,4.453125 z"
         style="font-variant:normal;font-stretch:normal;fill:#000000;font-family:Harabara;-inkscape-font-specification:Harabara"
         id="path5310" />
      <path
         d="m 306.5625,102.40602 5.3125,0 c 0.0521,1.04167 0.4427,1.82292 1.17187,2.34375 0.78125,0.52084 1.82291,0.78126 3.125,0.78125 0.93749,1e-5 1.74479,-0.18229 2.42188,-0.54687 0.62499,-0.36458 0.93749,-0.85937 0.9375,-1.48438 -10e-6,-0.93749 -1.09376,-1.64062 -3.28125,-2.10937 -0.93751,-0.15625 -1.64063,-0.31249 -2.10938,-0.46875 -2.76042,-0.67708 -4.60937,-1.484368 -5.54687,-2.421878 -1.04167,-0.937488 -1.5625,-2.187487 -1.5625,-3.75 0,-1.97915 0.75521,-3.619774 2.26562,-4.921875 1.5625,-1.197896 3.59375,-1.796854 6.09375,-1.796875 2.70833,2.1e-5 4.86978,0.598979 6.48438,1.796875 1.5104,1.302101 2.31769,2.994808 2.42187,5.078125 l -3.35937,0 c -0.9896,1.4e-5 -1.7448,-0.442694 -2.26563,-1.328125 l 0,0 c -0.20834,-0.208318 -0.41667,-0.416651 -0.625,-0.625 -0.62501,-0.468733 -1.48438,-0.703108 -2.57812,-0.703125 -1.04167,1.7e-5 -1.82292,0.156267 -2.34375,0.46875 -0.46876,0.312516 -0.70313,0.781266 -0.70313,1.40625 0,0.833348 1.35416,1.536472 4.0625,2.109375 0.3125,0.10418 0.58593,0.182304 0.82032,0.234375 0.23436,0.0521 0.45572,0.07814 0.66406,0.07813 2.65624,0.677095 4.50519,1.458345 5.54687,2.34375 0.98957,0.937509 1.48436,2.187513 1.48438,3.750003 -2e-5,2.29167 -0.83335,4.0625 -2.5,5.3125 -1.56251,1.14583 -3.90626,1.71875 -7.03125,1.71875 -2.96876,0 -5.18229,-0.59896 -6.64063,-1.79688 -1.51041,-1.19791 -2.26562,-2.9427 -2.26562,-5.23437 z"
         style="font-variant:normal;font-stretch:normal;fill:#000000;font-family:Harabara;-inkscape-font-specification:Harabara"
         id="path5312" />
    </g>
    <path
       style="fill:#ffffff"
       d="m 299.1727,464.84345 c -1.26303,-0.08 -3.44929,-0.3285 -4.85835,-0.5512 l -2.56192,-0.4053 0,-4.301 0,-4.3011 -1.77327,-0.5032 c -3.43752,-0.9755 -7.64551,-2.7408 -10.53455,-4.4193 l -1.11048,-0.6452 -3.05498,3.0354 -3.05499,3.0354 -1.10933,-0.7756 c -4.6688,-3.264 -10.4864,-9.0816 -13.75044,-13.7503 l -0.77554,-1.1094 3.03541,-3.0549 3.03543,-3.0551 -0.64519,-1.1104 c -1.67854,-2.8891 -3.44382,-7.097 -4.41935,-10.5347 l -0.50323,-1.7731 -4.29994,0 -4.29995,0 -0.39066,-2.4524 c -0.88634,-5.5637 -0.88634,-11.7411 0,-17.3049 l 0.39066,-2.4524 4.29995,0 4.29994,0 0.50323,-1.7732 c 0.97553,-3.4376 2.74081,-7.6455 4.41935,-10.5347 l 0.64519,-1.1104 -3.03543,-3.0549 -3.03541,-3.055 0.77554,-1.1094 c 3.26404,-4.6687 9.08164,-10.4863 13.75044,-13.7504 l 1.10933,-0.7755 3.05499,3.0354 3.05498,3.0354 1.11048,-0.6451 c 2.88904,-1.6786 7.09703,-3.4439 10.53455,-4.4195 l 1.77327,-0.5032 0,-4.2999 0,-4.3 2.45232,-0.3906 c 5.56377,-0.8864 11.74118,-0.8864 17.30498,0 l 2.45231,0.3906 0,4.3 0,4.2999 1.77326,0.5032 c 3.43754,0.9756 7.64552,2.7409 10.53456,4.4195 l 1.11048,0.6451 3.05499,-3.0354 3.05497,-3.0354 1.10931,0.7755 c 4.66882,3.2641 10.48641,9.0817 13.75045,13.7504 l 0.77554,1.1094 -3.03541,3.055 -3.03541,3.0549 0.64518,1.1104 c 1.67852,2.8892 3.44381,7.0971 4.41934,10.5347 l 0.50323,1.7732 4.29996,0 4.29994,0 0.39066,2.4524 c 0.88633,5.5638 0.88633,11.7412 0,17.3049 l -0.39066,2.4524 -4.29994,0 -4.29996,0 -0.50323,1.7731 c -0.97553,3.4377 -2.74082,7.6456 -4.41934,10.5347 l -0.64518,1.1104 3.03541,3.0551 3.03541,3.0549 -0.77554,1.1094 c -3.26404,4.6687 -9.08163,10.4863 -13.75045,13.7503 l -1.10931,0.7756 -3.05497,-3.0354 -3.05499,-3.0354 -1.11048,0.6452 c -2.88904,1.6785 -7.09702,3.4438 -10.53456,4.4193 l -1.77326,0.5032 0,4.3011 0,4.301 -2.54485,0.3986 c -2.50971,0.3931 -7.21888,0.7725 -9.02267,0.7272 -0.50897,-0.013 -1.95878,-0.089 -3.22182,-0.1693 z m 9.30614,-28.1088 c 8.41497,-1.8207 15.54911,-7.3449 19.25183,-14.9072 1.18339,-2.417 1.799,-4.1813 2.36596,-6.7809 0.35444,-1.6252 0.41827,-2.4686 0.41827,-5.5269 0,-3.0583 -0.0638,-3.9018 -0.41827,-5.527 -1.20359,-5.5187 -3.73392,-10.1911 -7.62766,-14.0848 -3.89373,-3.8938 -8.56608,-6.424 -14.08485,-7.6277 -1.62515,-0.3544 -2.4686,-0.4182 -5.52689,-0.4182 -3.05829,0 -3.90174,0.064 -5.52689,0.4182 -5.51875,1.2037 -10.19112,3.7339 -14.08485,7.6277 -3.89374,3.8937 -6.42406,8.5661 -7.62766,14.0848 -0.35444,1.6252 -0.41827,2.4687 -0.41827,5.527 0,3.9061 0.27825,5.7848 1.31197,8.8583 3.10063,9.2189 11.25123,16.427 20.72626,18.3292 2.73108,0.5483 2.69254,0.5455 6.17468,0.4819 2.4373,-0.044 3.69118,-0.1569 5.06637,-0.4544 z"
       id="path6446"
       inkscape:connector-curvature="0" />
  </g>
</svg>
